<?xml version="1.0" encoding="us-ascii" standalone="no"?><svg xmlns="http://www.w3.org/2000/svg" xmlns:xlink="http://www.w3.org/1999/xlink" contentStyleType="text/css" height="555px" preserveAspectRatio="none" style="width:711px;height:555px;background:#FFFFFF;" version="1.1" viewBox="0 0 711 555" width="711px" zoomAndPan="magnify"><defs/><g><!--cluster Vercel--><g id="cluster_Vercel"><polygon fill="#F5F5F5" points="16,16,26,6,278,6,278,115,268,125,16,125,16,16" style="stroke:#D31027;stroke-width:1.0;"/><line style="stroke:#D31027;stroke-width:1.0;" x1="268" x2="278" y1="16" y2="6"/><line style="stroke:#D31027;stroke-width:1.0;" x1="16" x2="268" y1="16" y2="16"/><line style="stroke:#D31027;stroke-width:1.0;" x1="268" x2="268" y1="16" y2="125"/><text fill="#1A1A1B" font-family="sans-serif" font-size="12" font-weight="bold" lengthAdjust="spacing" textLength="37" x="124.5" y="31.8281">Vercel</text></g><!--cluster Render--><g id="cluster_Render"><polygon fill="#F5F5F5" points="279,198,289,188,561,188,561,364,551,374,279,374,279,198" style="stroke:#D31027;stroke-width:1.0;"/><line style="stroke:#D31027;stroke-width:1.0;" x1="551" x2="561" y1="198" y2="188"/><line style="stroke:#D31027;stroke-width:1.0;" x1="279" x2="551" y1="198" y2="198"/><line style="stroke:#D31027;stroke-width:1.0;" x1="551" x2="551" y1="198" y2="374"/><text fill="#1A1A1B" font-family="sans-serif" font-size="12" font-weight="bold" lengthAdjust="spacing" textLength="43" x="394.5" y="213.8281">Render</text></g><!--cluster Docker--><g id="cluster_Docker"><rect fill="#FFFFFF" height="114" rx="2.5" ry="2.5" style="stroke:#9A0B1E;stroke-width:1.0;" width="234" x="303" y="236"/><rect fill="#FFFFFF" height="10" style="stroke:#9A0B1E;stroke-width:1.0;" width="15" x="517" y="241"/><rect fill="#FFFFFF" height="2" style="stroke:#9A0B1E;stroke-width:1.0;" width="4" x="515" y="243"/><rect fill="#FFFFFF" height="2" style="stroke:#9A0B1E;stroke-width:1.0;" width="4" x="515" y="247"/><text fill="#1A1A1B" font-family="sans-serif" font-size="12" font-weight="bold" lengthAdjust="spacing" textLength="103" x="368.5" y="261.8281">Docker Container</text></g><!--cluster Supabase--><g id="cluster_Supabase"><polygon fill="#F5F5F5" points="560,447,570,437,694,437,694,528,684,538,560,538,560,447" style="stroke:#D31027;stroke-width:1.0;"/><line style="stroke:#D31027;stroke-width:1.0;" x1="684" x2="694" y1="447" y2="437"/><line style="stroke:#D31027;stroke-width:1.0;" x1="560" x2="684" y1="447" y2="447"/><line style="stroke:#D31027;stroke-width:1.0;" x1="684" x2="684" y1="447" y2="538"/><text fill="#1A1A1B" font-family="sans-serif" font-size="12" font-weight="bold" lengthAdjust="spacing" textLength="58" x="594" y="462.8281">Supabase</text></g><!--entity Angular--><g id="elem_Angular"><rect fill="#FFFFFF" height="62.6882" rx="2.5" ry="2.5" style="stroke:#9A0B1E;stroke-width:0.5;" width="231" x="31.5" y="46"/><rect fill="#FFFFFF" height="10" style="stroke:#9A0B1E;stroke-width:0.5;" width="15" x="242.5" y="51"/><rect fill="#FFFFFF" height="2" style="stroke:#9A0B1E;stroke-width:0.5;" width="4" x="240.5" y="53"/><rect fill="#FFFFFF" height="2" style="stroke:#9A0B1E;stroke-width:0.5;" width="4" x="240.5" y="57"/><text fill="#1A1A1B" font-family="sans-serif" font-size="12" lengthAdjust="spacing" textLength="61" x="46.5" y="78.8281">Angular 21</text><text fill="#1A1A1B" font-family="sans-serif" font-size="12" lengthAdjust="spacing" textLength="191" x="46.5" y="95.1722">TypeScript / TailwindCSS / DaisyUI</text></g><!--entity SpringBoot--><g id="elem_SpringBoot"><rect fill="#FFFFFF" height="62.6882" rx="2.5" ry="2.5" style="stroke:#9A0B1E;stroke-width:0.5;" width="202" x="319" y="271"/><rect fill="#FFFFFF" height="10" style="stroke:#9A0B1E;stroke-width:0.5;" width="15" x="501" y="276"/><rect fill="#FFFFFF" height="2" style="stroke:#9A0B1E;stroke-width:0.5;" width="4" x="499" y="278"/><rect fill="#FFFFFF" height="2" style="stroke:#9A0B1E;stroke-width:0.5;" width="4" x="499" y="282"/><text fill="#1A1A1B" font-family="sans-serif" font-size="12" lengthAdjust="spacing" textLength="95" x="334" y="303.8281">Spring Boot 4.0.5</text><text fill="#1A1A1B" font-family="sans-serif" font-size="12" lengthAdjust="spacing" textLength="162" x="334" y="320.1722">Java 21 / Spring Security / JPA</text></g><!--entity DB--><g id="elem_DB"><path d="M578.5,487 C578.5,477 621,477 621,477 C621,477 663.5,477 663.5,487 L663.5,512.3441 C663.5,522.3441 621,522.3441 621,522.3441 C621,522.3441 578.5,522.3441 578.5,512.3441 L578.5,487 " fill="#FFFFFF" style="stroke:#9A0B1E;stroke-width:0.5;"/><path d="M578.5,487 C578.5,497 621,497 621,497 C621,497 663.5,497 663.5,487 " fill="none" style="stroke:#9A0B1E;stroke-width:0.5;"/><text fill="#1A1A1B" font-family="sans-serif" font-size="12" lengthAdjust="spacing" textLength="65" x="588.5" y="513.8281">PostgreSQL</text></g><!--entity Browser--><g id="elem_Browser"><ellipse cx="147" cy="264.5" fill="#F4F4F4" rx="8" ry="8" style="stroke:#555555;stroke-width:0.5;"/><path d="M147,272.5 L147,299.5 M134,280.5 L160,280.5 M147,299.5 L134,314.5 M147,299.5 L160,314.5 " fill="none" style="stroke:#555555;stroke-width:0.5;"/><text fill="#1A1A1B" font-family="sans-serif" font-size="12" lengthAdjust="spacing" textLength="62" x="102.5" y="328.8281">Navigateur</text><text fill="#1A1A1B" font-family="sans-serif" font-size="12" lengthAdjust="spacing" textLength="89" x="102.5" y="345.1722">(Coach / Admin)</text></g><g id="elem_GMN14"><path d="M171,462 L171,537.3765 A0,0 0 0 0 171,537.3765 L543,537.3765 A0,0 0 0 0 543,537.3765 L543,472 L533,462 L372.87,462 L410.02,334.4 L364.87,462 L171,462 A0,0 0 0 0 171,462 " fill="#FFF8F8" style="stroke:#D31027;stroke-width:0.5;"/><path d="M533,462 L533,472 L543,472 L533,462 " fill="#FFF8F8" style="stroke:#D31027;stroke-width:0.5;"/><text fill="#1A1A1B" font-family="sans-serif" font-size="12" lengthAdjust="spacing" textLength="280" x="177" y="479.8281">Spring Security : routes par r&#244;le (PLAYER / ADMIN)</text><text fill="#1A1A1B" font-family="sans-serif" font-size="12" lengthAdjust="spacing" textLength="202" x="177" y="496.1722">BCrypt : hachage des mots de passe</text><text fill="#1A1A1B" font-family="sans-serif" font-size="12" lengthAdjust="spacing" textLength="216" x="177" y="512.5163">CORS : origines autoris&#233;es configur&#233;es</text><text fill="#1A1A1B" font-family="sans-serif" font-size="12" lengthAdjust="spacing" textLength="351" x="177" y="528.8604">Headers HTTP : CSP, X-Frame-Options, X-Content-Type-Options</text></g><!--reverse link Angular to Browser--><g id="link_Angular_Browser"><path d="M147,115.04 C147,152.97 147,212.03 147,255.88 " fill="none" id="Angular-backto-Browser" style="stroke:#9A0B1E;stroke-width:1.0;"/><polygon fill="#9A0B1E" points="147,109.04,143,118.04,147,114.04,151,118.04,147,109.04" style="stroke:#9A0B1E;stroke-width:1.0;"/><text fill="#9A0B1E" font-family="sans-serif" font-size="11" lengthAdjust="spacing" textLength="33" x="167.5" y="153.7589">HTTPS</text><text fill="#9A0B1E" font-family="sans-serif" font-size="11" lengthAdjust="spacing" textLength="72" x="148" y="168.7408">(HTML/JS/CSS)</text></g><!--link Browser to SpringBoot--><g id="link_Browser_SpringBoot"><path d="M191.77,302.5 C226.19,302.5 269.08,302.5 312.79,302.5 " fill="none" id="Browser-to-SpringBoot" style="stroke:#9A0B1E;stroke-width:1.0;"/><polygon fill="#9A0B1E" points="318.79,302.5,309.79,298.5,313.79,302.5,309.79,306.5,318.79,302.5" style="stroke:#9A0B1E;stroke-width:1.0;"/><text fill="#9A0B1E" font-family="sans-serif" font-size="11" lengthAdjust="spacing" textLength="33" x="238.75" y="251.2589">HTTPS</text><text fill="#9A0B1E" font-family="sans-serif" font-size="11" lengthAdjust="spacing" textLength="61" x="224.75" y="266.2408">REST / JSON</text><text fill="#9A0B1E" font-family="sans-serif" font-size="11" lengthAdjust="spacing" textLength="19" x="245.75" y="281.2227">JWT</text><text fill="#9A0B1E" font-family="sans-serif" font-size="11" lengthAdjust="spacing" textLength="91" x="209.75" y="296.2046">(cookie HttpOnly)</text></g><!--link SpringBoot to DB--><g id="link_SpringBoot_DB"><path d="M456.47,334.08 C485.38,358.82 526.36,395.01 560,429 C575.24,444.41 587.4984,458.3062 599.3484,472.3362 " fill="none" id="SpringBoot-to-DB" style="stroke:#9A0B1E;stroke-width:1.0;"/><polygon fill="#9A0B1E" points="603.22,476.92,600.4685,467.4633,599.9937,473.1002,594.3568,472.6254,603.22,476.92" style="stroke:#9A0B1E;stroke-width:1.0;"/><text fill="#9A0B1E" font-family="sans-serif" font-size="11" lengthAdjust="spacing" textLength="25" x="556" y="402.7589">JDBC</text><text fill="#9A0B1E" font-family="sans-serif" font-size="11" lengthAdjust="spacing" textLength="40" x="550" y="417.7408">SSL/TLS</text></g><!--SRC=[lLNTRjem5BxFKnonYxNIAALhjQxI9kKF0QB0uj1j4ZTkOe95i2FRQSMcFj3kzmPziHq7Mg0hLBtOx9la_9_l_5ZFk2YeedD8sOIMkMb9OGZ_mQ1vukX7ffxILDvoaS64vffjSAPKfBUA6yF4YkTiS8LC6Vnq03oQp38bIv7wCfSAthJExBKSgLAcLjJWVVFuv0DIRHWhMjF5wwren2no1jSoJvsxJKU9d1TIC65sUAlEKsyVtMEl6JxhRSjuIWszffhz2zjKANbR6TwZk4LRLgUvRKQnn52HvVy7RI7DRZ3EM-UlSBGDHcAGzGgKpwgpo_1R-FJSGRhhn-4esYcmZAFMfpSyeuQLQYmEV4cJAJJ0JUTS7DQ0Ql2mT9hPu4xjtUVmAepyiBTJe9gJsXLJ2Sjh5G3hXgwv8Yjpgk2aEHRnec0aKRmm64fCUOv3cVg4u5z0kLwCEbLaAvNz84HXFmYZ5sAAc42u_uefaCaCC_SHTig55K2lAw8LtH8cXRAhmvFImEdHyT7PM7Jf3SM4CEmLax2an3MoG4ftw5RcbXohXGRlzkT2HaFNSqduGZQaBAf9NkRpEDUreTGcKunywIqJyLv2hkV6dK6Vx9HvQ8rwMTG_FvG3Bg0TnqE2tTIEBtkDBcbWwGwTjRJYsTIWmZhrjKuKajYYGmPznEzhZ5OIAMUSGTkOOY3o1LhQKApZnXPeA_3GHZVmV1WBGdgDk4VsvTOVn26Gq1z5dNWVdCOk1cFa7EHakrHFAte1ECY6QS0X1tN_6rVAmR3dVWyZEqx1PQT_QEVQLul2fZl5EQCPmmT9mrmQZH-egV5bmHqvY0YAICG9kqu3BN5GkRx_XT-951EUbSh-e6YRKMnSNQ67AZuPleDlzHQk6LOV58PBeIt1TZ0sQTqErWFTmPwlTfpp1m00]--></g></svg>